<?xml version="1.0" encoding="UTF-8"?>
<!DOCTYPE svg  PUBLIC '-//W3C//DTD SVG 20010904//EN'  'http://www.w3.org/TR/2001/REC-SVG-20010904/DTD/svg10.dtd'>
<svg width="512pt" height="512pt" version="1.0" viewBox="0 0 512 512" xmlns="http://www.w3.org/2000/svg">
<g transform="translate(0 512) scale(.1 -.1)">
<path d="m0 2560v-2560h2560 2560v2560 2560h-2560-2560v-2560zm3630 1291c16-31 12-49-15-67-23-15-27-15-50 0-43 28-26 86 25 86 19 0 33-7 40-19zm-3114-132c48-12 49-15 34-54-8-22-13-24-29-15-11 5-38 10-60 10-31 0-43-5-51-21-16-28 6-50 86-88 49-23 68-38 80-64 50-104-62-194-196-158-58 16-64 22-49 55 10 21 17 26 33 20 48-16 112-16 125 0 27 32 5 64-68 101-81 40-101 64-101 120 0 81 85 122 196 94zm379-13c50-33 59-61 66-197 4-80 11-134 19-144 10-12 10-18 0-30-17-21-43-19-73 5-24 19-28 20-49 6-63-40-166-26-198 27-29 47-26 108 6 146 37 44 59 54 138 60 38 3 71 11 73 17s-5 22-16 35c-17 21-27 24-91 24-68 0-73 2-82 24-10 29-8 31 34 42 48 12 145 3 173-15zm790 13c111-31 159-193 93-311-33-59-79-83-158-83s-125 24-158 84c-63 112-24 254 83 302 46 21 84 23 140 8zm462-8c66-31 76-60 81-233l4-148h-45-46l-3 145c-3 122-6 147-21 162-25 25-98 24-126-1-19-18-21-29-21-163v-143h-45-45l2 193 3 192 24 3c15 3 30-3 37-13 12-17 16-16 56 4 53 26 90 26 145 2zm462-8c51-38 61-74 61-230v-143h-39-39l-4 141c-3 140-3 141-31 165-15 13-39 24-53 24-32 0-80-25-88-45-3-9-6-77-6-151v-134h-40-40v195 195h26c15 0 32-8 39-17 12-16 15-16 37-1 13 9 33 18 43 21 36 10 107-1 134-20zm394 16c80-22 133-98 125-179l-3-35-142-3c-134-2-143-4-143-22 0-11 13-34 29-52 27-31 34-33 90-33 34 1 66 6 73 13s15 12 18 12c7 0 30-45 30-59 0-13-48-31-103-37-137-16-227 62-227 196 0 145 117 237 253 199zm446 2c12-8 12-14 1-41-12-29-15-31-51-25-85 15-109-29-109-200v-125h-45-45l2 193 3 192 43 3c33 2 42 0 42-12 0-20-2-20 45 4 41 21 90 26 114 11zm564-19c59-34 98-118 83-177l-6-25h-140-140v-25c0-62 90-101 168-73l43 16 15-30c19-37 13-42-62-59-93-21-178 6-228 74-25 33-34 147-17 199 15 44 68 95 117 114 48 18 124 11 167-14zm-2856-99c25-62 48-113 53-113 4 0 29 51 56 113l49 112 44 3c38 3 42 1 37-16-11-34-167-367-177-377-6-6-14-4-22 5-11 12-149 312-175 378-3 10 7 12 43 10l47-3 45-112zm2473-78v-195h-40-39l-6 314-25 6c-25 6-36 29-26 56 4 10 23 14 71 14h65v-195zm-3120-735v-340h180 180v-60-60l-247 2-248 3-3 385c-1 212 0 391 3 397 3 9 27 13 70 13h65v-340zm771 118c109-36 131-86 139-313 5-131 10-177 23-202 23-44 22-50-17-63-40-13-76-2-102 33l-18 24-33-23c-70-47-201-50-263-6-32 23-70 97-70 137 0 135 103 215 277 215 70 0 73 1 73 23 0 62-85 97-188 79-37-6-70-8-74-4s-10 25-13 48c-7 39-6 41 26 51 46 15 198 16 240 1zm-418-796c26-11 47-24 47-27s-11-28-25-55c-25-50-25-50-51-34-32 22-150 30-197 15-52-18-113-83-137-149-16-42-21-79-21-146 0-79 3-95 31-153 45-91 88-118 190-118 69 0 82 3 128 32l52 32 27-46c33-56 27-68-49-106-67-34-174-45-259-28-113 24-200 108-239 230-27 87-28 235 0 322 34 110 122 205 222 241 71 25 212 20 281-10zm1470-4c40-48 7-118-57-118-57 0-97 70-63 112 33 42 87 45 120 6zm-268-198 25-10-24-49-25-49-59 5c-72 7-102-9-132-71-18-38-20-61-20-224v-182h-65-65v290 290h65c58 0 65-2 65-20 0-24 22-26 40-5 25 31 141 45 195 25zm784-6c55-16 123-69 146-114 25-47 38-118 31-165l-7-45h-210-209v-24c0-34 40-88 80-108 48-24 144-24 193 1 40 20 43 19 71-37 17-32 17-34-1-47-34-25-108-40-198-40-82 0-95 3-145 31-215 120-169 482 70 555 42 13 124 10 179-7zm1209 1c28-9 54-20 57-25 4-7-22-91-29-90 0 0-19 7-41 15-89 32-159 10-153-48 3-29 10-36 95-77 51-25 106-58 123-75 77-74 56-206-42-256-77-39-230-34-297 10-20 13 17 104 39 97 8-3 35-12 60-21 48-18 110-15 135 5 23 19 19 73-7 98-13 11-53 34-89 50-118 53-169 119-154 199 12 64 48 100 125 124 42 13 124 10 178-6zm556 1c61-19 109-56 141-111 29-49 45-131 36-178l-7-32-209-5-210-5 4-25c10-77 72-120 171-120 41 0 74 6 100 20l40 20 20-40c11-21 20-44 20-50 0-21-92-52-169-57-111-8-179 14-241 76-35 35-53 63-64 102-43 145 4 304 110 370 81 50 169 62 258 35zm-3437-176c1-96 2-191 2-211 1-55 38-89 96-89s105 20 133 55c21 26 22 38 22 226v199h60 60v-290-290h-59c-51 0-59 3-64 21-4 16-10 20-24 14-138-60-228-59-297 4-52 47-56 70-56 316v226l63-3 62-3 2-175zm1163-110v-290h-65-65l-2 238-3 237-37 3c-37 3-38 4-38 46 0 23 3 46 7 49 3 4 51 7 105 7h98v-290zm920 103c0-205 8-255 46-279 37-25 123-15 168 20l36 27 2 207 3 207 63 3 62 3v-291-290h-61c-53 0-62 3-66 21-4 14-10 18-22 13-77-34-130-46-183-41-73 6-121 36-147 91-19 39-21 60-21 269v227h60 60v-187z"/>
<path d="m759 3505c-34-19-45-59-24-91 12-19 24-24 56-24 56 0 91 36 87 88-3 36-4 37-48 39-25 2-57-4-71-12z"/>
<path d="m1571 3644c-69-49-66-210 5-243 98-44 176 73 133 198-19 54-91 77-138 45z"/>
<path d="m2873 3625c-51-51-42-60 70-63 91-3 97-1 97 17 0 33-11 51-41 66-48 25-87 19-126-20z"/>
<path d="m3859 3645c-29-16-55-63-41-77 5-5 49-8 98-6 103 3 116 17 66 68-34 34-79 39-123 15z"/>
<path d="m1175 2613c-94-20-134-94-84-157 18-23 28-26 80-26 54 0 64 3 90 29s29 37 29 89c0 45-4 61-16 66-17 7-67 6-99-1z"/>
<path d="m2685 1801c-11-5-28-17-37-28-22-24-49-89-41-97 4-3 69-6 145-6 155 0 160 2 134 64-20 49-68 76-131 75-27 0-59-4-70-8z"/>
<path d="m4438 1793c-32-20-72-88-64-109 5-12 29-14 143-12 133 3 138 4 141 25 5 32-24 80-58 98-39 20-128 19-162-2z"/>
</g>
</svg>
